<svg width="37" height="27" viewBox="0 0 37 27" fill="none" xmlns="http://www.w3.org/2000/svg">
<path d="M28.3182 4.55882C27.1073 4.16765 25.7764 4 24.5 4C22.3727 4 20.0818 4.44706 18.5 5.67647C16.9182 4.44706 14.6273 4 12.5 4C10.3727 4 8.08182 4.44706 6.5 5.67647V22.05C6.5 22.3294 6.77273 22.6088 7.04545 22.6088C7.15455 22.6088 7.20909 22.5529 7.31818 22.5529C8.79091 21.8265 10.9182 21.3235 12.5 21.3235C14.6273 21.3235 16.9182 21.7706 18.5 23C19.9727 22.05 22.6455 21.3235 24.5 21.3235C26.3 21.3235 28.1545 21.6588 29.6818 22.4971C29.7909 22.5529 29.8455 22.5529 29.9545 22.5529C30.2273 22.5529 30.5 22.2735 30.5 21.9941V5.67647C29.8455 5.17353 29.1364 4.83824 28.3182 4.55882ZM28.3182 19.6471C27.1182 19.2559 25.8091 19.0882 24.5 19.0882C22.6455 19.0882 19.9727 19.8147 18.5 20.7647V7.91176C19.9727 6.96176 22.6455 6.23529 24.5 6.23529C25.8091 6.23529 27.1182 6.40294 28.3182 6.79412V19.6471Z" fill="#B2B2B2"/>
<path d="M24.5 10.7059C25.46 10.7059 26.3873 10.8065 27.2273 10.9965V9.29765C26.3655 9.13001 25.4382 9.02942 24.5 9.02942C22.6455 9.02942 20.9655 9.35354 19.5909 9.95707V11.8124C20.8236 11.0971 22.5364 10.7059 24.5 10.7059Z" fill="#B2B2B2"/>
<path d="M19.5909 12.9301V14.7854C20.8236 14.0701 22.5364 13.6789 24.5 13.6789C25.46 13.6789 26.3873 13.7795 27.2273 13.9695V12.2707C26.3655 12.103 25.4382 12.0024 24.5 12.0024C22.6455 12.0024 20.9655 12.3377 19.5909 12.9301Z" fill="#B2B2B2"/>
<path d="M24.5 14.9865C22.6455 14.9865 20.9655 15.3106 19.5909 15.9141V17.7694C20.8236 17.0541 22.5364 16.6629 24.5 16.6629C25.46 16.6629 26.3873 16.7635 27.2273 16.9535V15.2547C26.3655 15.0759 25.4382 14.9865 24.5 14.9865Z" fill="#B2B2B2"/>
</svg>
