<svg width="44" height="40" viewBox="0 0 44 40" fill="none" xmlns="http://www.w3.org/2000/svg">
<path fill-rule="evenodd" clip-rule="evenodd" d="M21.0833 24.3326V15.6676L26.2332 19.9993L21.0833 24.3326ZM22.6215 12.421C21.7085 11.651 20.3757 11.451 19.228 11.9093C18.1097 12.3526 17.4167 13.301 17.4167 14.3826V25.6176C17.4167 26.6993 18.1097 27.6476 19.228 28.091C19.6368 28.2543 20.0713 28.3326 20.4985 28.3326C21.274 28.3326 22.0348 28.0743 22.6197 27.581L29.2967 21.9643C29.9035 21.4543 30.25 20.7393 30.25 19.9993C30.25 19.261 29.9035 18.5443 29.2967 18.036L22.6215 12.421ZM22 33.3333C13.9132 33.3333 7.33333 27.3516 7.33333 20C7.33333 12.6483 13.9132 6.66665 22 6.66665C30.0868 6.66665 36.6667 12.6483 36.6667 20C36.6667 27.3516 30.0868 33.3333 22 33.3333ZM22 3.33331C11.891 3.33331 3.66666 10.81 3.66666 20C3.66666 29.19 11.891 36.6666 22 36.6666C32.109 36.6666 40.3333 29.19 40.3333 20C40.3333 10.81 32.109 3.33331 22 3.33331Z" fill="#FBFBFB"/>
</svg>
