<svg width="24" height="21" viewBox="0 0 24 21" fill="none" xmlns="http://www.w3.org/2000/svg">
<path d="M11.8145 6.63158L15.2727 10.1242C15.2727 10.0689 15.2727 10.0026 15.2727 9.94737C15.2727 9.06797 14.9279 8.22458 14.3142 7.60275C13.7004 6.98092 12.868 6.63158 12 6.63158C11.9345 6.63158 11.88 6.63158 11.8145 6.63158ZM7.12364 7.51579L8.81455 9.22895C8.76 9.46105 8.72727 9.69316 8.72727 9.94737C8.72727 10.8268 9.07208 11.6702 9.68583 12.292C10.2996 12.9138 11.132 13.2632 12 13.2632C12.24 13.2632 12.48 13.23 12.7091 13.1747L14.4 14.8879C13.6691 15.2526 12.8618 15.4737 12 15.4737C10.5534 15.4737 9.16598 14.8914 8.14305 13.8551C7.12013 12.8187 6.54545 11.413 6.54545 9.94737C6.54545 9.07421 6.76364 8.25632 7.12364 7.51579ZM1.09091 1.40368L3.57818 3.92368L4.06909 4.42105C2.26909 5.85789 0.850909 7.73684 0 9.94737C1.88727 14.7995 6.54545 18.2368 12 18.2368C13.6909 18.2368 15.3055 17.9053 16.7782 17.3084L17.2473 17.7726L20.4327 21L21.8182 19.5963L2.47636 0M12 4.42105C13.4466 4.42105 14.834 5.00329 15.8569 6.03967C16.8799 7.07606 17.4545 8.4817 17.4545 9.94737C17.4545 10.6547 17.3127 11.34 17.0618 11.9589L20.2582 15.1974C21.8945 13.8158 23.2036 12.0032 24 9.94737C22.1127 5.09526 17.4545 1.65789 12 1.65789C10.4727 1.65789 9.01091 1.93421 7.63636 2.43158L10.0036 4.80789C10.6255 4.56474 11.2909 4.42105 12 4.42105Z" fill="#CDC7FD"/>
</svg>
