<svg width="24" height="24" viewBox="0 0 24 24" fill="none" xmlns="http://www.w3.org/2000/svg">
<path d="M18 13C18.34 13 18.67 13.04 19 13.09V10C19 8.9 18.11 8 17 8H16V6C16 3.24 13.76 1 11 1C8.24 1 6 3.24 6 6V8H5C3.9 8 3 8.89 3 10V20C3 21.11 3.89 22 5 22H12.81C12.3 21.12 12 20.1 12 19C12 15.69 14.69 13 18 13ZM8 6C8 4.34 9.34 3 11 3C12.66 3 14 4.34 14 6V8H8V6ZM11 17C9.9 17 9 16.11 9 15C9 13.89 9.9 13 11 13C12.1 13 13 13.89 13 15C13 16.11 12.11 17 11 17ZM21.5 17.25L16.75 22L14 19L15.16 17.84L16.75 19.43L20.34 15.84L21.5 17.25Z" fill="#201561" fill-opacity="0.7"/>
</svg>
