<svg width="35" height="35" viewBox="0 0 35 35" fill="none" xmlns="http://www.w3.org/2000/svg">
<path d="M17.5 0C7.8225 0 0 7.8225 0 17.5C0 27.1775 7.8225 35 17.5 35C27.1775 35 35 27.1775 35 17.5C35 7.8225 27.1775 0 17.5 0ZM22.925 8.8725C23.17 8.8725 23.415 8.96 23.625 9.1525L25.8475 11.375C26.25 11.76 26.25 12.3725 25.8475 12.74L24.0975 14.49L20.51 10.9025L22.26 9.1525C22.435 8.96 22.68 8.8725 22.925 8.8725ZM19.4775 11.9175L23.0825 15.5225L12.4775 26.1275H8.8725V22.5225L19.4775 11.9175Z" fill="#F9FE09" fill-opacity="0.7"/>
</svg>
