<svg width="24" height="24" viewBox="0 0 24 24" fill="none" xmlns="http://www.w3.org/2000/svg">
<path d="M17.95 12.78C17.98 12.53 18 12.27 18 12C18 11.73 17.98 11.47 17.94 11.22L19.63 9.9C19.78 9.78 19.82 9.56 19.73 9.39L18.13 6.62C18.03 6.44 17.82 6.38 17.64 6.44L15.65 7.24C15.23 6.92 14.79 6.66 14.3 6.46L14 4.34C13.97 4.14 13.8 4 13.6 4H10.4C10.2 4 10.04 4.14 10.01 4.34L9.71001 6.46C9.22001 6.66 8.77001 6.93 8.36001 7.24L6.37001 6.44C6.19001 6.37 5.98001 6.44 5.88001 6.62L4.28001 9.39C4.18001 9.57 4.22001 9.78 4.38001 9.9L6.07001 11.22C6.03001 11.47 6.00001 11.74 6.00001 12C6.00001 12.26 6.02001 12.53 6.06001 12.78L4.37001 14.1C4.22001 14.22 4.18001 14.44 4.27001 14.61L5.87001 17.38C5.97001 17.56 6.18001 17.62 6.36001 17.56L8.35001 16.76C8.77001 17.08 9.21001 17.34 9.70001 17.54L10 19.66C10.04 19.86 10.2 20 10.4 20H13.6C13.8 20 13.97 19.86 13.99 19.66L14.29 17.54C14.78 17.34 15.23 17.07 15.64 16.76L17.63 17.56C17.81 17.63 18.02 17.56 18.12 17.38L19.72 14.61C19.82 14.43 19.78 14.22 19.62 14.1L17.95 12.78ZM12 15C10.35 15 9.00001 13.65 9.00001 12C9.00001 10.35 10.35 9 12 9C13.65 9 15 10.35 15 12C15 13.65 13.65 15 12 15Z" fill="black" fill-opacity="0.6"/>
</svg>
