<svg width="24" height="24" viewBox="0 0 24 24" fill="none" xmlns="http://www.w3.org/2000/svg">
<path d="M21.8182 4.55882C20.6073 4.16765 19.2764 4 18 4C15.8727 4 13.5818 4.44706 12 5.67647C10.4182 4.44706 8.12727 4 6 4C3.87273 4 1.58182 4.44706 0 5.67647V22.05C0 22.3294 0.272727 22.6088 0.545455 22.6088C0.654545 22.6088 0.709091 22.5529 0.818182 22.5529C2.29091 21.8265 4.41818 21.3235 6 21.3235C8.12727 21.3235 10.4182 21.7706 12 23C13.4727 22.05 16.1455 21.3235 18 21.3235C19.8 21.3235 21.6545 21.6588 23.1818 22.4971C23.2909 22.5529 23.3455 22.5529 23.4545 22.5529C23.7273 22.5529 24 22.2735 24 21.9941V5.67647C23.3455 5.17353 22.6364 4.83824 21.8182 4.55882ZM21.8182 19.6471C20.6182 19.2559 19.3091 19.0882 18 19.0882C16.1455 19.0882 13.4727 19.8147 12 20.7647V7.91176C13.4727 6.96176 16.1455 6.23529 18 6.23529C19.3091 6.23529 20.6182 6.40294 21.8182 6.79412V19.6471Z" fill="#523EE8"/>
<path d="M18 10.7059C18.96 10.7059 19.8872 10.8065 20.7272 10.9965V9.29765C19.8654 9.13001 18.9382 9.02942 18 9.02942C16.1454 9.02942 14.4654 9.35354 13.0909 9.95707V11.8124C14.3236 11.0971 16.0363 10.7059 18 10.7059Z" fill="#523EE8"/>
<path d="M13.0909 12.9301V14.7854C14.3236 14.0701 16.0363 13.6789 18 13.6789C18.96 13.6789 19.8872 13.7795 20.7272 13.9695V12.2707C19.8654 12.103 18.9382 12.0024 18 12.0024C16.1454 12.0024 14.4654 12.3377 13.0909 12.9301Z" fill="#523EE8"/>
<path d="M18 14.9865C16.1454 14.9865 14.4654 15.3106 13.0909 15.9141V17.7694C14.3236 17.0541 16.0363 16.6629 18 16.6629C18.96 16.6629 19.8872 16.7635 20.7272 16.9535V15.2547C19.8654 15.0759 18.9382 14.9865 18 14.9865Z" fill="#523EE8"/>
</svg>
